<mxfile host="app.diagrams.net" modified="2022-10-09T19:10:19.655Z" agent="5.0 (Windows NT 10.0; Win64; x64) AppleWebKit/537.36 (KHTML, like Gecko) Chrome/105.0.0.0 Safari/537.36" etag="luC9A6tzXaC9D2qqwBtU" version="20.4.0" type="github">
  <diagram id="2lYntNfgOz4Zp2xXQCv-" name="Página-1">
    <mxGraphModel dx="1720" dy="916" grid="0" gridSize="10" guides="1" tooltips="1" connect="1" arrows="1" fold="1" page="0" pageScale="1" pageWidth="827" pageHeight="1169" background="none" math="0" shadow="0">
      <root>
        <mxCell id="0" />
        <mxCell id="1" parent="0" />
        <mxCell id="KcA9sx5EcOgl9lJ91ylc-1" value="&lt;font color=&quot;#006600&quot; face=&quot;Lucida Console&quot; style=&quot;font-size: 20px;&quot;&gt;DDL&lt;/font&gt;" style="rounded=0;whiteSpace=wrap;html=1;fillColor=#d5e8d4;strokeColor=#82b366;labelBackgroundColor=none;" parent="1" vertex="1">
          <mxGeometry x="-228" y="-315" width="120" height="60" as="geometry" />
        </mxCell>
        <mxCell id="KcA9sx5EcOgl9lJ91ylc-20" value="" style="edgeStyle=orthogonalEdgeStyle;orthogonalLoop=1;jettySize=auto;html=1;strokeColor=#9933FF;fontFamily=Comic Sans MS;fontSize=16;fontColor=#CC00CC;curved=1;" parent="1" source="KcA9sx5EcOgl9lJ91ylc-3" target="KcA9sx5EcOgl9lJ91ylc-1" edge="1">
          <mxGeometry relative="1" as="geometry" />
        </mxCell>
        <mxCell id="KcA9sx5EcOgl9lJ91ylc-3" value="&lt;font style=&quot;font-size: 17px;&quot; color=&quot;#6600cc&quot;&gt;Comandos de Banco de Dados - SQL&lt;/font&gt;" style="text;whiteSpace=wrap;html=1;fontFamily=Comic Sans MS;fontSize=14;fontStyle=1;strokeColor=#9673a6;rounded=1;shadow=1;glass=1;fillColor=#e1d5e7;fillStyle=auto;align=center;" parent="1" vertex="1">
          <mxGeometry x="135" y="-375" width="384" height="36" as="geometry" />
        </mxCell>
        <mxCell id="KcA9sx5EcOgl9lJ91ylc-4" value="" style="endArrow=classic;html=1;rounded=0;fontFamily=Lucida Console;fontSize=20;fontColor=#FF8000;fillColor=#d5e8d4;strokeColor=#82b366;" parent="1" source="KcA9sx5EcOgl9lJ91ylc-1" target="KcA9sx5EcOgl9lJ91ylc-6" edge="1">
          <mxGeometry width="50" height="50" relative="1" as="geometry">
            <mxPoint x="541" y="80" as="sourcePoint" />
            <mxPoint x="623" y="80" as="targetPoint" />
          </mxGeometry>
        </mxCell>
        <mxCell id="KcA9sx5EcOgl9lJ91ylc-6" value="- Criam os bancos de dados nos servidores,&lt;br&gt;comandos que mexem com a estrutura&lt;br&gt;- Criam tabelas e alteram índices" style="text;html=1;resizable=0;autosize=1;align=left;verticalAlign=middle;points=[];fillColor=default;strokeColor=none;rounded=0;labelBackgroundColor=none;fontFamily=Comic Sans MS;fontSize=15;fontColor=#000000;fillStyle=dots;gradientColor=none;" parent="1" vertex="1">
          <mxGeometry x="-330" y="-221" width="316" height="66" as="geometry" />
        </mxCell>
        <mxCell id="KcA9sx5EcOgl9lJ91ylc-122" value="" style="edgeStyle=orthogonalEdgeStyle;curved=1;orthogonalLoop=1;jettySize=auto;html=1;strokeColor=#9933FF;exitX=0.25;exitY=1;exitDx=0;exitDy=0;fillColor=#e1d5e7;" parent="1" source="KcA9sx5EcOgl9lJ91ylc-3" target="KcA9sx5EcOgl9lJ91ylc-81" edge="1">
          <mxGeometry relative="1" as="geometry">
            <mxPoint x="200" y="-290.0000000000001" as="targetPoint" />
          </mxGeometry>
        </mxCell>
        <mxCell id="KcA9sx5EcOgl9lJ91ylc-81" value="&lt;font face=&quot;Lucida Console&quot; style=&quot;font-size: 20px;&quot; color=&quot;#ff8000&quot;&gt;DML&lt;/font&gt;" style="rounded=0;whiteSpace=wrap;html=1;fillColor=#fff2cc;strokeColor=#d6b656;labelBackgroundColor=none;" parent="1" vertex="1">
          <mxGeometry x="77" y="-236" width="120" height="60" as="geometry" />
        </mxCell>
        <mxCell id="KcA9sx5EcOgl9lJ91ylc-102" style="edgeStyle=orthogonalEdgeStyle;rounded=0;jumpSize=2;orthogonalLoop=1;jettySize=auto;html=1;exitX=0.5;exitY=1;exitDx=0;exitDy=0;strokeColor=#00CC66;fontFamily=Comic Sans MS;fontSize=16;fontColor=#6600CC;" parent="1" edge="1">
          <mxGeometry relative="1" as="geometry">
            <mxPoint x="778.5" y="205" as="sourcePoint" />
            <mxPoint x="778.5" y="205" as="targetPoint" />
          </mxGeometry>
        </mxCell>
        <mxCell id="KcA9sx5EcOgl9lJ91ylc-110" value="&lt;font color=&quot;#000000&quot;&gt;&lt;br&gt;&lt;/font&gt;" style="text;html=1;align=left;verticalAlign=middle;resizable=0;points=[];autosize=1;strokeColor=none;fillColor=none;fontSize=17;fontFamily=Comic Sans MS;fontColor=#CC00CC;rounded=0;" parent="1" vertex="1">
          <mxGeometry x="-218" y="371" width="18" height="32" as="geometry" />
        </mxCell>
        <mxCell id="KcA9sx5EcOgl9lJ91ylc-118" value="&lt;font style=&quot;font-size: 15px;&quot;&gt;&lt;font style=&quot;font-size: 15px;&quot; color=&quot;#000000&quot;&gt;- Gerenciam dados -&amp;gt; incluir, alterar e excluir&lt;br&gt;-&amp;nbsp;&lt;/font&gt;&lt;span style=&quot;color: rgb(0, 0, 0);&quot;&gt;Alteram o conteúdo dos dados contidos nos objetos dos bancos de dados&lt;/span&gt;&lt;font style=&quot;font-size: 15px;&quot; color=&quot;#000000&quot;&gt;&lt;br&gt;&lt;/font&gt;&lt;/font&gt;&lt;span style=&quot;color: rgb(61, 70, 77); font-size: 15px;&quot;&gt;&lt;font style=&quot;font-size: 15px;&quot;&gt;- Retiram informações das estruturas e exibem para os usuários os dados das estruturas do banco relacional.&lt;/font&gt;&lt;br&gt;&lt;/span&gt;" style="text;html=1;strokeColor=none;fillColor=none;align=left;verticalAlign=middle;whiteSpace=wrap;rounded=0;labelBackgroundColor=none;fontFamily=Comic Sans MS;fontSize=16;fontColor=#00B0B0;" parent="1" vertex="1">
          <mxGeometry x="-141" y="-145" width="556" height="123" as="geometry" />
        </mxCell>
        <mxCell id="KcA9sx5EcOgl9lJ91ylc-120" value="" style="endArrow=classic;html=1;rounded=0;strokeColor=#FF8000;" parent="1" source="KcA9sx5EcOgl9lJ91ylc-81" target="KcA9sx5EcOgl9lJ91ylc-118" edge="1">
          <mxGeometry width="50" height="50" relative="1" as="geometry">
            <mxPoint x="245" y="-55" as="sourcePoint" />
            <mxPoint x="-35" y="-127" as="targetPoint" />
          </mxGeometry>
        </mxCell>
        <mxCell id="KcA9sx5EcOgl9lJ91ylc-125" value="&lt;font color=&quot;#3333ff&quot; face=&quot;Lucida Console&quot; style=&quot;font-size: 20px;&quot;&gt;DCL&lt;/font&gt;" style="rounded=0;whiteSpace=wrap;html=1;fillColor=#dae8fc;strokeColor=#6c8ebf;labelBackgroundColor=none;" parent="1" vertex="1">
          <mxGeometry x="639" y="-238" width="120" height="60" as="geometry" />
        </mxCell>
        <mxCell id="KcA9sx5EcOgl9lJ91ylc-127" value="" style="edgeStyle=orthogonalEdgeStyle;curved=1;orthogonalLoop=1;jettySize=auto;html=1;strokeColor=#9933FF;exitX=0.81;exitY=1.028;exitDx=0;exitDy=0;fillColor=#e1d5e7;exitPerimeter=0;entryX=0.658;entryY=0.017;entryDx=0;entryDy=0;entryPerimeter=0;" parent="1" source="KcA9sx5EcOgl9lJ91ylc-3" target="KcA9sx5EcOgl9lJ91ylc-125" edge="1">
          <mxGeometry relative="1" as="geometry">
            <mxPoint x="560" y="-267" as="sourcePoint" />
            <mxPoint x="346" y="-169" as="targetPoint" />
          </mxGeometry>
        </mxCell>
        <mxCell id="KcA9sx5EcOgl9lJ91ylc-128" value="&lt;font style=&quot;font-size: 15px;&quot; color=&quot;#000000&quot;&gt;&lt;span style=&quot;&quot;&gt;- Administram o ambiente do banco de dados &lt;br&gt;- Como os dados serão armazenados no disco rígido da máquina&lt;/span&gt;&lt;/font&gt;" style="text;html=1;strokeColor=none;fillColor=none;align=left;verticalAlign=middle;whiteSpace=wrap;rounded=0;labelBackgroundColor=none;fontFamily=Comic Sans MS;fontSize=16;fontColor=#00B0B0;" parent="1" vertex="1">
          <mxGeometry x="519" y="-115" width="357" height="82" as="geometry" />
        </mxCell>
        <mxCell id="KcA9sx5EcOgl9lJ91ylc-131" value="" style="endArrow=classic;html=1;rounded=0;strokeColor=#3333FF;" parent="1" source="KcA9sx5EcOgl9lJ91ylc-125" target="KcA9sx5EcOgl9lJ91ylc-128" edge="1">
          <mxGeometry width="50" height="50" relative="1" as="geometry">
            <mxPoint x="147" y="-166" as="sourcePoint" />
            <mxPoint x="147" y="-135" as="targetPoint" />
          </mxGeometry>
        </mxCell>
        <mxCell id="KcA9sx5EcOgl9lJ91ylc-132" value="&lt;font color=&quot;#006633&quot; face=&quot;Lucida Console&quot; style=&quot;font-size: 20px;&quot;&gt;Create&lt;/font&gt;" style="rounded=0;whiteSpace=wrap;html=1;fillColor=#d5e8d4;strokeColor=#82b366;labelBackgroundColor=none;shadow=1;fillStyle=auto;fontSize=15;" parent="1" vertex="1">
          <mxGeometry x="43.5" y="23" width="120" height="60" as="geometry" />
        </mxCell>
        <mxCell id="KcA9sx5EcOgl9lJ91ylc-133" value="&lt;font color=&quot;#006633&quot; face=&quot;Lucida Console&quot; style=&quot;font-size: 20px;&quot;&gt;Alter&lt;/font&gt;" style="rounded=0;whiteSpace=wrap;html=1;fillColor=#d5e8d4;strokeColor=#82b366;labelBackgroundColor=none;shadow=1;fillStyle=auto;fontSize=15;" parent="1" vertex="1">
          <mxGeometry x="194.5" y="23" width="120" height="60" as="geometry" />
        </mxCell>
        <mxCell id="KcA9sx5EcOgl9lJ91ylc-134" value="&lt;font color=&quot;#006633&quot; face=&quot;Lucida Console&quot; style=&quot;font-size: 20px;&quot;&gt;Truncate&lt;/font&gt;" style="rounded=0;whiteSpace=wrap;html=1;fillColor=#d5e8d4;strokeColor=#82b366;labelBackgroundColor=none;shadow=1;fillStyle=auto;fontSize=15;" parent="1" vertex="1">
          <mxGeometry x="345.5" y="23" width="120" height="60" as="geometry" />
        </mxCell>
        <mxCell id="KcA9sx5EcOgl9lJ91ylc-135" value="&lt;font face=&quot;Lucida Console&quot; style=&quot;font-size: 20px;&quot;&gt;Drop&lt;/font&gt;" style="rounded=0;whiteSpace=wrap;html=1;fillColor=#d5e8d4;strokeColor=#82b366;labelBackgroundColor=none;shadow=1;fillStyle=auto;fontSize=15;fontColor=#006633;" parent="1" vertex="1">
          <mxGeometry x="496.5" y="23" width="120" height="60" as="geometry" />
        </mxCell>
        <mxCell id="KcA9sx5EcOgl9lJ91ylc-136" value="Cria uma base de dados ou tabela" style="text;html=1;strokeColor=none;fillColor=none;align=center;verticalAlign=middle;whiteSpace=wrap;rounded=0;labelBackgroundColor=none;fontFamily=Comic Sans MS;fontSize=16;fontColor=#00B0B0;fillStyle=auto;" parent="1" vertex="1">
          <mxGeometry x="26" y="102" width="155" height="64" as="geometry" />
        </mxCell>
        <mxCell id="KcA9sx5EcOgl9lJ91ylc-137" value="Altera as propriedades de uma estrutura ou componentes do banco" style="text;html=1;strokeColor=none;fillColor=none;align=center;verticalAlign=middle;whiteSpace=wrap;rounded=0;labelBackgroundColor=none;fontFamily=Comic Sans MS;fontSize=16;fontColor=#00B0B0;fillStyle=auto;" parent="1" vertex="1">
          <mxGeometry x="173.5" y="111" width="155" height="64" as="geometry" />
        </mxCell>
        <mxCell id="KcA9sx5EcOgl9lJ91ylc-138" value="Apaga de forma definitiva os dados de uma tabela" style="text;html=1;strokeColor=none;fillColor=none;align=center;verticalAlign=middle;whiteSpace=wrap;rounded=0;labelBackgroundColor=none;fontFamily=Comic Sans MS;fontSize=16;fontColor=#00B0B0;fillStyle=auto;" parent="1" vertex="1">
          <mxGeometry x="332.5" y="106" width="155" height="64" as="geometry" />
        </mxCell>
        <mxCell id="KcA9sx5EcOgl9lJ91ylc-139" value="Apaga o componente da estrutura de dados" style="text;html=1;strokeColor=none;fillColor=none;align=center;verticalAlign=middle;whiteSpace=wrap;rounded=0;labelBackgroundColor=none;fontFamily=Comic Sans MS;fontSize=16;fontColor=#00B0B0;fillStyle=auto;" parent="1" vertex="1">
          <mxGeometry x="489.5" y="111" width="155" height="64" as="geometry" />
        </mxCell>
        <mxCell id="KcA9sx5EcOgl9lJ91ylc-141" value="" style="curved=1;endArrow=classic;html=1;rounded=0;fontFamily=Comic Sans MS;fontSize=16;fontColor=#FF8000;strokeColor=#FF8000;" parent="1" edge="1">
          <mxGeometry width="50" height="50" relative="1" as="geometry">
            <mxPoint x="141" y="213" as="sourcePoint" />
            <mxPoint x="191" y="163" as="targetPoint" />
            <Array as="points">
              <mxPoint x="191" y="213" />
              <mxPoint x="141" y="163" />
            </Array>
          </mxGeometry>
        </mxCell>
        <mxCell id="KcA9sx5EcOgl9lJ91ylc-143" value="&lt;font color=&quot;#ff8000&quot;&gt;índice, tabela, banco...&lt;/font&gt;" style="text;html=1;align=center;verticalAlign=middle;resizable=0;points=[];autosize=1;strokeColor=none;fillColor=none;fontSize=16;fontFamily=Comic Sans MS;fontColor=#00B0B0;fillStyle=auto;" parent="1" vertex="1">
          <mxGeometry x="-36" y="191" width="181" height="31" as="geometry" />
        </mxCell>
        <mxCell id="KcA9sx5EcOgl9lJ91ylc-144" value="&lt;font color=&quot;#ff8000&quot; face=&quot;Lucida Console&quot; style=&quot;font-size: 20px;&quot;&gt;Insert&lt;/font&gt;" style="rounded=0;whiteSpace=wrap;html=1;fillColor=#FFF2CC;strokeColor=#82b366;labelBackgroundColor=none;shadow=1;fillStyle=auto;fontSize=15;" parent="1" vertex="1">
          <mxGeometry x="38" y="247" width="120" height="60" as="geometry" />
        </mxCell>
        <mxCell id="KcA9sx5EcOgl9lJ91ylc-148" value="&lt;font color=&quot;#ff9933&quot;&gt;Inclui dados dentro de uma tabela&lt;/font&gt;" style="text;html=1;strokeColor=none;fillColor=none;align=center;verticalAlign=middle;whiteSpace=wrap;rounded=0;labelBackgroundColor=none;fontFamily=Comic Sans MS;fontSize=16;fontColor=#00B0B0;fillStyle=auto;" parent="1" vertex="1">
          <mxGeometry x="20.5" y="326" width="155" height="64" as="geometry" />
        </mxCell>
        <mxCell id="KcA9sx5EcOgl9lJ91ylc-150" value="Apaga os dados de uma tabela" style="text;html=1;strokeColor=none;fillColor=none;align=center;verticalAlign=middle;whiteSpace=wrap;rounded=0;labelBackgroundColor=none;fontFamily=Comic Sans MS;fontSize=16;fontColor=#FF9933;fillStyle=auto;" parent="1" vertex="1">
          <mxGeometry x="325" y="329" width="155" height="64" as="geometry" />
        </mxCell>
        <mxCell id="KcA9sx5EcOgl9lJ91ylc-151" value="Gerencia a concorrência de atualização de dados na mesma tabela" style="text;html=1;strokeColor=none;fillColor=none;align=center;verticalAlign=middle;whiteSpace=wrap;rounded=0;labelBackgroundColor=none;fontFamily=Comic Sans MS;fontSize=16;fontColor=#FF9933;fillStyle=auto;" parent="1" vertex="1">
          <mxGeometry x="484" y="335" width="155" height="64" as="geometry" />
        </mxCell>
        <mxCell id="KcA9sx5EcOgl9lJ91ylc-153" value="&lt;font color=&quot;#ff8000&quot; face=&quot;Lucida Console&quot; style=&quot;font-size: 20px;&quot;&gt;Update&lt;/font&gt;" style="rounded=0;whiteSpace=wrap;html=1;fillColor=#FFF2CC;strokeColor=#82b366;labelBackgroundColor=none;shadow=1;fillStyle=auto;fontSize=15;" parent="1" vertex="1">
          <mxGeometry x="185.5" y="247" width="120" height="60" as="geometry" />
        </mxCell>
        <mxCell id="KcA9sx5EcOgl9lJ91ylc-155" value="Altera dados de uma tabela já existente" style="text;html=1;strokeColor=none;fillColor=none;align=center;verticalAlign=middle;whiteSpace=wrap;rounded=0;labelBackgroundColor=none;fontFamily=Comic Sans MS;fontSize=16;fontColor=#FF9933;fillStyle=auto;" parent="1" vertex="1">
          <mxGeometry x="173.75" y="326" width="143.5" height="64" as="geometry" />
        </mxCell>
        <mxCell id="KcA9sx5EcOgl9lJ91ylc-156" value="&lt;font color=&quot;#ff8000&quot; face=&quot;Lucida Console&quot; style=&quot;font-size: 20px;&quot;&gt;Delete&lt;/font&gt;" style="rounded=0;whiteSpace=wrap;html=1;fillColor=#FFF2CC;strokeColor=#82b366;labelBackgroundColor=none;shadow=1;fillStyle=auto;fontSize=15;" parent="1" vertex="1">
          <mxGeometry x="344.5" y="247" width="120" height="60" as="geometry" />
        </mxCell>
        <mxCell id="KcA9sx5EcOgl9lJ91ylc-157" value="&lt;font color=&quot;#ff8000&quot; face=&quot;Lucida Console&quot; style=&quot;font-size: 20px;&quot;&gt;Lock&lt;/font&gt;" style="rounded=0;whiteSpace=wrap;html=1;fillColor=#FFF2CC;strokeColor=#82b366;labelBackgroundColor=none;shadow=1;fillStyle=auto;fontSize=15;" parent="1" vertex="1">
          <mxGeometry x="504" y="247" width="120" height="60" as="geometry" />
        </mxCell>
        <mxCell id="KcA9sx5EcOgl9lJ91ylc-158" value="&lt;font color=&quot;#3333ff&quot; face=&quot;Lucida Console&quot; style=&quot;font-size: 20px;&quot;&gt;Commit&lt;/font&gt;" style="rounded=0;whiteSpace=wrap;html=1;fillColor=#dae8fc;strokeColor=#6c8ebf;labelBackgroundColor=none;shadow=1;fillStyle=auto;fontSize=15;" parent="1" vertex="1">
          <mxGeometry x="103.5" y="431" width="120" height="60" as="geometry" />
        </mxCell>
        <mxCell id="KcA9sx5EcOgl9lJ91ylc-159" value="&lt;font color=&quot;#0066cc&quot;&gt;Salva o estado do banco de dados de forma definitiva no disco&lt;/font&gt;" style="text;html=1;strokeColor=none;fillColor=none;align=center;verticalAlign=middle;whiteSpace=wrap;rounded=0;labelBackgroundColor=none;fontFamily=Comic Sans MS;fontSize=16;fontColor=#00B0B0;fillStyle=auto;" parent="1" vertex="1">
          <mxGeometry x="86" y="510" width="155" height="64" as="geometry" />
        </mxCell>
        <mxCell id="KcA9sx5EcOgl9lJ91ylc-160" value="&lt;font color=&quot;#0066cc&quot;&gt;Salva o arquivo no banco de dados&lt;/font&gt;" style="text;html=1;strokeColor=none;fillColor=none;align=center;verticalAlign=middle;whiteSpace=wrap;rounded=0;labelBackgroundColor=none;fontFamily=Comic Sans MS;fontSize=16;fontColor=#FF9933;fillStyle=auto;" parent="1" vertex="1">
          <mxGeometry x="390.5" y="513" width="155" height="64" as="geometry" />
        </mxCell>
        <mxCell id="KcA9sx5EcOgl9lJ91ylc-162" value="&lt;font color=&quot;#3333ff&quot; face=&quot;Lucida Console&quot; style=&quot;font-size: 20px;&quot;&gt;Rollback&lt;/font&gt;" style="rounded=0;whiteSpace=wrap;html=1;fillColor=#dae8fc;strokeColor=#6c8ebf;labelBackgroundColor=none;shadow=1;fillStyle=auto;fontSize=15;" parent="1" vertex="1">
          <mxGeometry x="251" y="431" width="120" height="60" as="geometry" />
        </mxCell>
        <mxCell id="KcA9sx5EcOgl9lJ91ylc-163" value="&lt;font color=&quot;#0066cc&quot;&gt;Retorna o estado de um banco de dados relacional a partir de um ponto salvo previamente&lt;/font&gt;" style="text;html=1;strokeColor=none;fillColor=none;align=center;verticalAlign=middle;whiteSpace=wrap;rounded=0;labelBackgroundColor=none;fontFamily=Comic Sans MS;fontSize=16;fontColor=#FF9933;fillStyle=auto;" parent="1" vertex="1">
          <mxGeometry x="241" y="522" width="143.5" height="64" as="geometry" />
        </mxCell>
        <mxCell id="KcA9sx5EcOgl9lJ91ylc-164" value="&lt;font color=&quot;#3333ff&quot; face=&quot;Lucida Console&quot; style=&quot;font-size: 20px;&quot;&gt;Savepoint&lt;/font&gt;" style="rounded=0;whiteSpace=wrap;html=1;fillColor=#dae8fc;strokeColor=#6c8ebf;labelBackgroundColor=none;shadow=1;fillStyle=auto;fontSize=15;" parent="1" vertex="1">
          <mxGeometry x="410" y="431" width="120" height="60" as="geometry" />
        </mxCell>
      </root>
    </mxGraphModel>
  </diagram>
</mxfile>
